<svg xmlns="http://www.w3.org/2000/svg" viewBox="0 0 65.74 123.69">
  <title>chinese-menu</title>
  <g id="Layer_2" data-name="Layer 2">
    <g id="Layer_1-2" data-name="Layer 1">
      <g>
        <g>
          <rect x="4.34" y="4.91" width="48.18" height="5.18" transform="translate(-0.91 5.65) rotate(-11.17)" fill="#c60000" stroke="#000" stroke-miterlimit="10" stroke-width="0.5"/>
          <rect x="6.76" y="6.1" width="52.22" height="114.66" transform="translate(-7.14 4.24) rotate(-6.67)" fill="#c60000" stroke="#000" stroke-miterlimit="10" stroke-width="0.5"/>
          <g>
            <rect x="47.53" y="83.06" width="1.7" height="6.25" transform="translate(-9.68 6.2) rotate(-6.67)" fill="#fff" stroke="#000" stroke-miterlimit="10" stroke-width="0.5"/>
            <rect x="23.28" y="85.9" width="1.7" height="6.25" transform="translate(-10.17 3.4) rotate(-6.67)" fill="#fff" stroke="#000" stroke-miterlimit="10" stroke-width="0.5"/>
            <g>
              <rect x="26.6" y="72.98" width="1.7" height="20.44" transform="translate(-41.55 29.22) rotate(-33.7)" fill="#efd9a3" stroke="#000" stroke-miterlimit="10" stroke-width="0.5"/>
              <rect x="28.16" y="72.29" width="1.7" height="20.44" transform="translate(-30.96 18.85) rotate(-23.92)" fill="#efd9a3" stroke="#000" stroke-miterlimit="10" stroke-width="0.5"/>
            </g>
            <polygon points="45.8 105.64 30.57 107.42 23.24 86.27 48.62 83.3 45.8 105.64" fill="#fff" stroke="#000" stroke-miterlimit="10" stroke-width="0.5"/>
            <circle cx="37.22" cy="95.78" r="3.69" transform="translate(-10.87 4.97) rotate(-6.67)" fill="#ed1c24"/>
            <polygon points="45.52 88.53 27.47 90.63 22.93 86.02 48.31 83.05 45.52 88.53" fill="#fff" stroke="#000" stroke-miterlimit="10" stroke-width="0.5"/>
          </g>
        </g>
        <rect x="8.52" y="31.1" width="40.87" height="4.68" transform="translate(-3.69 3.59) rotate(-6.67)" fill="#fcee21"/>
        <rect x="9.65" y="41.32" width="40.87" height="4.68" transform="translate(-4.86 3.79) rotate(-6.67)" fill="#fcee21"/>
      </g>
    </g>
  </g>
</svg>
