<svg xmlns="http://www.w3.org/2000/svg" viewBox="0 0 82.76 127.38">
  <title>pizza-menu</title>
  <g id="Layer_2" data-name="Layer 2">
    <g id="Layer_1-2" data-name="Layer 1">
      <g>
        <rect x="33.27" y="5.85" width="49.16" height="5.28" transform="translate(2.85 -11.36) rotate(11.49)" fill="#e5e5e5" stroke="#000" stroke-miterlimit="10" stroke-width="0.5"/>
        <rect x="14.44" y="5.19" width="53.29" height="117.01" transform="translate(17.74 -8.42) rotate(14.89)" fill="#e5e5e5" stroke="#000" stroke-miterlimit="10" stroke-width="0.5"/>
        <g>
          <rect x="60.33" y="11.27" width="2.93" height="115.85" transform="matrix(0.97, 0.26, -0.26, 0.97, 19.85, -13.55)" fill="#fff"/>
          <rect x="63.4" y="12.09" width="2.93" height="115.85" transform="translate(20.16 -14.31) rotate(14.89)" fill="#f93030"/>
          <rect x="57.27" y="10.46" width="2.93" height="115.85" transform="translate(19.54 -12.79) rotate(14.89)" fill="#24aa47"/>
        </g>
        <g>
          <polyline points="50.73 66.99 50.73 66.99 33.37 96.74 19.2 79.89" fill="#ea1313"/>
          <rect x="12.79" y="86.54" width="24.33" height="5.79" rx="2.5" ry="2.5" transform="translate(77.32 12.76) rotate(49.92)" fill="#edd198"/>
          <circle cx="34.1" cy="78.71" r="2.9" transform="translate(-42.67 40.44) rotate(-40.08)" fill="#f4f460"/>
          <circle cx="34" cy="89.39" r="1.74" transform="matrix(0.77, -0.64, 0.64, 0.77, -49.57, 42.89)" fill="#f5f7b5"/>
          <circle cx="45.34" cy="72.28" r="0.58" transform="translate(-35.89 46.17) rotate(-40.08)" fill="#efef48"/>
          <circle cx="26.54" cy="80.53" r="1.74" transform="translate(-45.61 36) rotate(-40.08)" fill="#f5f7b5"/>
          <circle cx="41.65" cy="76.89" r="1.74" transform="translate(-39.73 44.88) rotate(-40.08)" fill="#f5f7b5"/>
        </g>
        <rect x="27.86" y="29.8" width="32.44" height="4.63" transform="matrix(0.97, 0.26, -0.26, 0.97, 9.73, -10.25)" fill="#595951"/>
        <rect x="25.18" y="39.88" width="32.44" height="4.63" transform="translate(12.23 -9.22) rotate(14.89)" fill="#595951"/>
      </g>
    </g>
  </g>
</svg>
